<svg width="960" height="640" viewBox="0 0 960 640" fill="none" xmlns="http://www.w3.org/2000/svg">
  <rect width="960" height="640" rx="32" fill="#F4EFE8"/>
  <rect x="46" y="46" width="868" height="548" rx="24" fill="#FFFFFF"/>
  <rect x="98" y="110" width="264" height="18" rx="9" fill="#111827"/>
  <rect x="98" y="148" width="402" height="12" rx="6" fill="#6B7280" fill-opacity="0.55"/>
  <rect x="98" y="222" width="764" height="220" rx="22" fill="#E6E0D5"/>
  <rect x="130" y="256" width="256" height="152" rx="16" fill="#27364A"/>
  <rect x="416" y="256" width="414" height="16" rx="8" fill="#111827"/>
  <rect x="416" y="290" width="328" height="10" rx="5" fill="#6B7280" fill-opacity="0.55"/>
  <rect x="416" y="316" width="290" height="10" rx="5" fill="#6B7280" fill-opacity="0.55"/>
  <rect x="416" y="372" width="136" height="36" rx="18" fill="#2E6D6A"/>
  <rect x="98" y="484" width="232" height="72" rx="18" fill="#F7F4EF"/>
  <rect x="364" y="484" width="232" height="72" rx="18" fill="#F7F4EF"/>
  <rect x="630" y="484" width="232" height="72" rx="18" fill="#F7F4EF"/>
</svg>
